# xmcd
#
# Track frame offsets: 
#        150
#        12907
#        37817
#        62942
#
# Disc length: 1152 seconds
#
# Revision: 2
# Processed by: cddbd v1.5.2PL0 Copyright (c) Steve Scherf et al.
# Submitted via: ExactAudioCopy v0.90b4
#
DISCID=29047e04
DTITLE=Marc Cohn - Strangers in a Car (EP)
DYEAR=1991
DGENRE=Pop
TTITLE0=Strangers In A Car
TTITLE1=True Companion (Live)
TTITLE2=Silver Thunderbird (live)
TTITLE3=Walking In Memphis (live)
EXTD=
EXTT0=
EXTT1=
EXTT2=
EXTT3=
PLAYORDER=
